<?xml version="1.0" encoding="UTF-8"?>
<svg id="Layer_1" xmlns="http://www.w3.org/2000/svg" version="1.1" viewBox="0 0 1006.49 282.74">
  <!-- Generator: Adobe Illustrator 30.3.0, SVG Export Plug-In . SVG Version: 2.1.3 Build 182)  -->
  <defs>
    <style>
      .st0 {
        fill: #046f81;
      }
    </style>
  </defs>
  <g>
    <path class="st0" d="M208.15,28.63c0-.44-.36-.8-.8-.8-.09,0-.18.02-.27.05l-96.31,33.84c-.22.08-.37.29-.37.52v17.66c0,.17-.14.31-.31.31-.03,0-.05,0-.08-.01-4.78-1.37-10.16-2.27-16.14-2.71-.43-.03-.76-.39-.76-.83v-29.06c0-.28.17-.52.43-.61L227.26.01c.12-.04.26.02.31.15,0,.02.01.05.01.07v281.88c0,.34-.27.62-.62.62-.06,0-.12,0-.17-.02l-99.3-27.35c-.19-.05-.32-.22-.32-.42v-19.13c0-.27.21-.48.47-.49.04,0,.08,0,.13.02l79.95,21.16c.18.05.37-.06.42-.24,0-.03.01-.06.01-.09V28.63Z"/>
    <path class="st0" d="M47.2,240.49c.14.11.16.3.05.44-.02.03-.05.06-.08.07l-.23.14s-.04.01-.06,0c-21.09-11.82-35.22-28.72-42.41-50.71-10.64-32.52-2.04-67.45,23.05-90.66,15.14-14.01,33.32-21.54,54.55-22.61.35-.01.68.05,1.01.2.14.06.21.23.15.37-.04.08-.11.14-.2.16-22.99,5.5-41.29,17.77-54.92,36.82-.13.19-.09.45.1.58.05.03.11.06.16.07l23.38,4.29c.54.1,1.07-.18,1.31-.68,6.42-13.93,15.83-25.08,28.24-33.45.16-.1.37-.06.47.1.08.13.07.29-.03.41-8.9,9.79-15.64,21.26-20.21,34.39-.07.2.03.42.23.49.03,0,.06.02.09.02,9.81,1.09,19.68,1.67,29.61,1.73.22,0,.4-.17.42-.39l2.59-32.28c.03-.15.17-.25.32-.23.11.02.2.11.23.22l3.92,32.35c.02.16.15.28.31.28,8.44-.15,17.15-1.21,26.07-2.19.09-.02.17.03.2.12s-.03.17-.12.2c-8.51,3.47-17.14,5.91-25.91,7.32-.18.03-.32.19-.31.37l1.32,34.42c.01.27.23.49.5.5,3.85.1,6.97.07,9.34-.08,12.37-.8,22.76-1.57,31.17-2.3.09-.02.17.03.2.11.02.09-.03.17-.12.2-.7.34-1.75.71-3.14,1.1-12.61,3.59-25.14,6.18-37.59,7.79-.3.04-.52.29-.52.58-.03,11.52-.53,22.93-1.49,34.22-.03.34.22.63.56.66.05,0,.1,0,.15,0l19.7-3c.1-.02.2.05.22.16.01.08-.03.17-.11.2-6.41,2.95-13.21,5.31-20.4,7.08-.26.06-.45.28-.48.54l-3.35,31.09c-.04.19-.22.32-.41.28-.15-.03-.26-.14-.28-.29l-2.21-29.79c-.02-.24-.23-.42-.47-.4-.01,0-.02,0-.04,0-9.96,1.7-19.72,2.48-29.28,2.34-.21,0-.38.16-.39.37,0,.05,0,.1.03.15,4.76,12.35,11.3,22.97,19.63,31.86.13.14.12.35-.02.47-.01,0-.02.02-.03.03-.07.05-.17.02-.3-.07-12.03-8.48-21.25-19.15-27.66-32-.28-.56-.83-.94-1.46-1-10.35-.97-20.52-3.37-30.49-7.21-.27-.11-.57.02-.68.29-.05.14-.05.29.02.42,6.04,13.17,14.74,24.29,26.1,33.35ZM48.91,127.62c-8.55-1.37-16.32-3.96-23.29-7.75-.22-.12-.51-.05-.64.17-6.75,10.99-10.84,22.98-12.28,35.99-.05.45.26.87.7.96,9.39,2.11,18.87,3.58,28.46,4.41.4.03.75-.26.79-.66,0,0,0-.02,0-.02.64-11.45,2.82-22.33,6.55-32.62.07-.19-.03-.39-.23-.46-.02,0-.04-.01-.06-.02ZM90.76,163.35l.98-33.85c0-.19-.14-.34-.33-.35-.01,0-.03,0-.04,0-10.81,1.03-21.54,1.04-32.19.02-.29-.02-.55.16-.63.44-3.03,10.69-4.63,21.44-4.78,32.25-.01.53.4.96.93.98l35.52,1.02c.29.01.53-.22.54-.51,0,0,0,0,0,0ZM49.83,205.56c-4.03-10.93-6.39-22.06-7.06-33.39-.02-.31-.27-.56-.58-.58-9.71-.62-19.6-1.98-29.67-4.09-.23-.04-.45.1-.49.32,0,.03,0,.06,0,.09.13,12.12,2.63,25.67,8.07,36.77.2.41.61.67,1.07.69l28.22.81c.25.01.47-.19.48-.44,0-.06,0-.12-.03-.18ZM54.2,172.39c-.25-.01-.46.18-.47.44,0,.01,0,.03,0,.04.51,11.13,2.23,21.92,5.16,32.37.18.64.75,1.09,1.41,1.13,10.36.49,20.76.4,31.2-.29.28-.02.49-.26.48-.54l-1.28-33.64c-.01-.36-.32-.64-.68-.62-.01,0-.02,0-.03,0-12.13,1.05-24.06,1.42-35.79,1.11Z"/>
  </g>
  <g>
    <path class="st0" d="M365,60.35c8.56,0,15.29,4.44,19.57,11.93,11.53,20.15,32.28,56.82,62.27,110.01.14.26.04.58-.22.72-.07.04-.16.06-.24.06h-28.75c-.47,0-.91-.26-1.14-.67-15.81-27.88-32.86-57.4-51.16-88.57-.08-.13-.19-.19-.33-.19s-.25.06-.33.19c-18.3,31.17-35.35,60.69-51.16,88.57-.23.41-.67.67-1.14.67h-28.75c-.29,0-.53-.24-.52-.54,0-.08.02-.17.06-.24,29.99-53.19,50.74-89.86,62.27-110.01,4.28-7.49,11.01-11.93,19.57-11.93Z"/>
    <path class="st0" d="M617.37,182.56c.12.14.1.35-.03.46-.06.05-.13.08-.21.08h-31.51c-.29-.01-.56-.13-.74-.35l-30.81-36.11c-.28-.34-.7-.53-1.14-.53h-49.78c-.32,0-.58.26-.58.58h0v35.74c0,.34-.27.61-.6.61h-24.21c-.34,0-.61-.27-.61-.61v-59.84c0-.15.13-.28.29-.28,52.43.05,83.88.03,94.35-.05,13.39-.1,19.13-9.87,17.22-21.94-.87-5.47-5.54-10.7-10.72-12.23-3.41-1.01-7.29-.78-11.09-.79-34.86-.04-61.55-.06-80.08-.06-.28,0-.54-.15-.68-.39l-13.41-23.23c-.07-.13-.02-.29.11-.37.04-.02.08-.03.12-.03,44.86.01,76.78,0,95.75-.04,7.46-.02,13.07.51,16.82,1.59,16.8,4.83,27.39,18.19,28.79,35.49,1.44,17.74-5.2,33.44-21.48,41.71-2.47,1.25-4.9,2.12-7.27,2.61-.25.05-.41.29-.36.54.02.08.05.15.1.21l31.76,37.23Z"/>
    <path class="st0" d="M642.74,183.06c-.25,0-.45-.2-.45-.45,0-.08.02-.15.06-.22l13.09-22.68c.2-.36.59-.58,1-.58,46.63-.07,73.94-.07,81.92,0,8.44.07,15.19-1.01,17.1-9.63,1.86-8.38-4.08-14.77-12.61-14.79-20.72-.04-39.18-.03-55.38.02-7.55.03-12.6-.3-15.17-.98-11.11-2.94-19.98-9.59-24.09-20.58-2.15-5.78-2.94-11.57-2.35-17.38,2-19.98,16.86-32.63,36.5-32.6,17.79.03,50.5.04,98.13.03.27,0,.48.21.48.48,0,.09-.02.17-.06.24l-13.32,23.07c-.09.16-.26.26-.45.26-36.79.05-63.81.04-81.06-.03-3.79-.01-6.44.26-7.93.82-11.05,4.2-9.33,22.19,3.81,22.57,2.15.07,22.86.09,62.12.08,13.4,0,27.7,7.35,33.43,19.92,9.61,21.07-.41,45.88-23.71,51.43-2.83.67-8,1.01-15.51,1-23.54,0-55.39,0-95.55,0Z"/>
    <path class="st0" d="M879.95,110.69c23.33,0,36.4,0,39.21.03.28,0,.51-.22.52-.51,0,0,0,0,0-.01v-46.38c0-.33.27-.6.61-.6h24.74c.23,0,.41.18.41.41v118.88c0,.3-.25.55-.56.55h-24.52c-.37,0-.67-.3-.67-.67h0v-47.28c0-.22-.18-.4-.41-.41-.71,0-13.82,0-39.33,0-25.52,0-38.63,0-39.33,0-.23,0-.42.18-.42.41v47.28c-.01.37-.31.67-.68.67h-24.52c-.31,0-.56-.26-.56-.56h0l.03-118.88c0-.23.18-.41.41-.41h24.74c.34,0,.61.28.61.61h0s-.01,46.38-.01,46.38c0,.29.23.52.51.52,0,0,0,0,0,0,2.81-.01,15.88-.02,39.21-.02Z"/>
    <rect class="st0" x="980.95" y="63.22" width="25.54" height="119.82" rx=".53" ry=".53"/>
    <path class="st0" d="M331.04,176.6l12.83-22.24c.1-.17.28-.27.47-.27h41.08c.19,0,.37.1.47.27l12.83,22.24c.15.26.06.59-.2.74-.08.05-.18.07-.27.07h-66.74c-.3,0-.54-.24-.54-.54,0-.1.02-.19.07-.27Z"/>
    <path class="st0" d="M320.27,235.08c.2,0,.36.16.36.35l.19,11.87c0,.47-.11.93-.33,1.34-.31.56-1.16,1.4-2.53,2.52-14.05,11.43-35.65,2.69-34.16-16.58.66-8.58,6.3-15.27,14.78-17.32,7.55-1.83,14.24.06,20.08,5.67.35.34.37.9.03,1.26-.02.02-.04.04-.07.06l-3.39,2.89c-.4.34-.99.3-1.34-.09-4.44-5-13.49-6.4-18.76-1.67-8.84,7.96-5.82,22.58,6.3,24.73,4.01.71,8.04-.32,12.09-3.1.36-.24.62-.6.74-1.01.38-1.3.46-2.91.25-4.82-.03-.29-.28-.5-.57-.5h-9.4c-.29,0-.53-.24-.53-.53v-4.58c0-.27.22-.49.5-.49h15.76Z"/>
    <path class="st0" d="M766.24,236.4c0,7.03,4.33,12.96,11.56,13.78,4.93.56,8.88-1.09,11.84-4.94.24-.32.7-.39,1.03-.14h0s4.1,3.1,4.1,3.1c.29.21.35.62.13.92,0,0-.01.02-.02.02-11.85,13.95-35.08,6.47-35.08-12.73,0-19.21,23.22-26.7,35.07-12.76.24.28.21.69-.07.92-.01,0-.02.02-.03.03l-4.1,3.1c-.33.25-.79.18-1.03-.14h0c-2.97-3.85-6.92-5.5-11.85-4.93-7.23.82-11.56,6.75-11.55,13.77Z"/>
    <path class="st0" d="M465.74,236.43c0,10.97-8.9,19.87-19.87,19.87s-19.87-8.9-19.87-19.87,8.9-19.87,19.87-19.87h0c10.97,0,19.87,8.9,19.87,19.87h0ZM445.9,222.44c-7.36-.06-13.38,6.12-13.45,13.81h0c-.07,7.69,5.85,13.98,13.21,14.05,7.36.06,13.38-6.12,13.45-13.81,0,0,0,0,0,0,.07-7.69-5.85-13.98-13.21-14.05Z"/>
    <path class="st0" d="M370.76,217.73v31.52c0,.29.24.53.53.53h15.8c.29,0,.53.24.53.53v4.71c0,.29-.24.53-.53.53h-22.16c-.29,0-.53-.24-.53-.53v-37.29c0-.29.24-.53.53-.53h5.3c.29,0,.53.24.53.53h0Z"/>
    <path class="st0" d="M531.73,235.91c1.21.67,2.89,1.76,3.74,3.09,5.06,8-.33,16.23-9.4,16.57-3.2.13-8.93.09-17.19-.11-.31-.01-.55-.26-.55-.57v-37.3c0-.18.15-.33.33-.34,10.44-.03,15.91-.03,16.41,0,3.06.16,5.52,1.04,7.39,2.65,4.65,4.02,4.32,11.32-.79,15.13-.23.18-.28.51-.11.74.04.06.1.11.17.14ZM514.63,223.27l-.04,9.46c0,.24.2.44.44.45l8.9.05c2.87.02,5.2-2.22,5.22-4.99h0v-.32c.02-2.77-2.29-5.03-5.16-5.05l-8.9-.05c-.25,0-.45.19-.46.44,0,0,0,0,0,.01ZM514.57,239.01l.06,10.54c0,.14.12.26.26.26h0l10.42-.05c3.05-.02,5.51-2.38,5.49-5.28v-.56c-.02-2.9-2.5-5.24-5.55-5.22,0,0,0,0,0,0l-10.42.05c-.14,0-.26.12-.26.26Z"/>
    <path class="st0" d="M653.45,217.55c0-.22.17-.39.39-.39,0,0,.01,0,.02,0h5.52c.23,0,.41.2.41.43h0v31.52c0,.36.3.66.66.66l15.64.04c.31,0,.56.25.56.56v4.65c.01.31-.24.56-.55.56l-22.12-.02c-.33,0-.6-.27-.6-.6,0,0,0,0,0-.01l.07-37.4Z"/>
    <path class="st0" d="M594.43,217.2c.99,0,1.95.05,2.89.15.34.04.63.26.76.58l14.34,36.91c.12.29-.03.62-.32.74-.07.03-.14.04-.21.04h-5.1c-.48,0-.9-.29-1.08-.74l-2.74-7.05c-.12-.32-.42-.53-.76-.54-.67-.02-3.25-.03-7.74-.02-4.48,0-7.06.02-7.73.05-.34.01-.64.22-.76.54l-2.72,7.06c-.17.44-.6.74-1.07.74l-5.1.02c-.31,0-.57-.24-.58-.56,0-.08.01-.15.04-.22l14.23-36.96c.13-.32.42-.54.75-.58.95-.11,1.91-.16,2.9-.16ZM588.32,240.98c-.06.16.02.34.18.4.04.01.07.02.11.02l11.63.04c.17,0,.31-.14.31-.31,0-.04,0-.08-.02-.11l-5.76-15.34c-.06-.16-.24-.24-.4-.18-.08.03-.15.1-.18.18l-5.87,15.3Z"/>
    <path class="st0" d="M850.54,247.21c-4.47,0-7.05,0-7.72.03-.34,0-.64.22-.76.54l-2.74,7.04c-.17.45-.6.74-1.08.74h-5.09c-.31,0-.57-.26-.57-.57,0-.07.01-.14.04-.21l14.32-36.87c.13-.32.42-.54.76-.58.94-.1,1.9-.15,2.89-.15.99,0,1.95.05,2.89.16.34.04.63.26.76.58l14.21,36.91c.12.29-.03.62-.32.74-.07.03-.14.04-.22.04h-5.09c-.48-.01-.91-.31-1.08-.76l-2.71-7.05c-.12-.32-.42-.53-.76-.54-.67-.02-3.25-.04-7.73-.05ZM844.41,241c-.06.16.02.34.18.4.03.01.07.02.1.02l11.68.06c.17,0,.31-.14.31-.31,0-.04,0-.08-.02-.11l-5.76-15.46c-.06-.16-.24-.24-.4-.18-.08.03-.15.1-.18.18l-5.91,15.4Z"/>
    <path class="st0" d="M915.61,254.86c0,.36-.3.66-.66.66h-5.12c-.42,0-.76-.34-.76-.75h0v-36.85c0-.41.33-.74.74-.74.01,0,.02,0,.03,0,1.83.05,5.67.05,11.52,0,4.78-.04,8.05.39,9.82,1.29,8.99,4.59,8.86,18.31-.99,21.98-.29.11-.44.43-.33.73.01.04.03.07.05.1l8.78,14.2s0,.05-.03.07c0,0,0,0-.01,0h-6.97c-.11,0-.21-.06-.27-.16l-7.95-13.28c-.26-.42-.71-.68-1.2-.68h-6.09c-.31,0-.56.25-.56.56v12.87ZM915.56,223.31l.04,12.12c0,.19.16.35.35.35l8.94-.04c3.46-.01,6.26-2.71,6.25-6.02v-.82c-.01-3.31-2.83-5.99-6.29-5.98h0l-8.94.04c-.19,0-.35.16-.35.35h0Z"/>
    <path class="st0" d="M1003.86,236.28c0,1.03-.03,1.88-.12,2.53-.03.23-.24.4-.47.4h-14.8c-.38,0-.68.3-.68.68h0v9.19c0,.38.31.69.7.69h17.05c.3,0,.54.25.54.55h0v4.66c0,.28-.23.51-.51.51h-23.35c-.4,0-.73-.32-.74-.72,0-.93-.03-7.06-.08-18.39-.05-11.34-.08-17.47-.07-18.39,0-.4.33-.72.73-.73l23.35-.2c.28,0,.51.23.51.51h0s.04,4.66.04,4.66c0,.3-.24.54-.53.55l-17.05.14c-.39,0-.7.31-.7.69,0,0,0,0,0,0l.08,9.19c0,.38.31.68.69.67h0l14.8-.12c.23,0,.44.17.47.4.09.65.14,1.49.14,2.52Z"/>
  </g>
</svg>